<svg width="128" height="58" viewBox="0 0 128 58" fill="none" xmlns="http://www.w3.org/2000/svg">
<g filter="url(#filter0_d)">
<g clip-path="url(#clip0)">
<rect x="4" width="50" height="50" fill=""/>
<rect x="19" y="17" width="20" height="3" fill="#616161"/>
<rect x="19" y="24" width="20" height="3" fill="#616161"/>
<rect x="19" y="31" width="20" height="3" fill="#616161"/>
<rect x="74" width="50" height="50" fill="" fill-opacity="0.9"/>
<path fill-rule="evenodd" clip-rule="evenodd" d="M104.581 18.1464C104.777 17.9512 105.093 17.9512 105.289 18.1464C105.484 18.3417 105.484 18.6583 105.289 18.8536L99.2782 24.8639L105.996 31.5815C106.191 31.7767 106.191 32.0933 105.996 32.2886C105.8 32.4838 105.484 32.4838 105.289 32.2886L98.5711 25.571L91.8536 32.2886C91.6583 32.4838 91.3417 32.4838 91.1464 32.2886C90.9512 32.0933 90.9512 31.7767 91.1464 31.5815L97.864 24.8639L91.8536 18.8536C91.6583 18.6583 91.6583 18.3417 91.8536 18.1464C92.0489 17.9512 92.3654 17.9512 92.5607 18.1464L98.5711 24.1568L104.581 18.1464Z" fill="#F5F5F5"/>
</g>
</g>
<defs>
<filter id="filter0_d" x="0" y="0" width="128" height="58" filterUnits="userSpaceOnUse" color-interpolation-filters="sRGB">
<feFlood flood-opacity="0" result="BackgroundImageFix"/>
<feColorMatrix in="SourceAlpha" type="matrix" values="0 0 0 0 0 0 0 0 0 0 0 0 0 0 0 0 0 0 127 0"/>
<feOffset dy="4"/>
<feGaussianBlur stdDeviation="2"/>
<feColorMatrix type="matrix" values="0 0 0 0 0 0 0 0 0 0 0 0 0 0 0 0 0 0 0 0"/>
<feBlend mode="normal" in2="BackgroundImageFix" result="effect1_dropShadow"/>
<feBlend mode="normal" in="SourceGraphic" in2="effect1_dropShadow" result="shape"/>
</filter>
<clipPath id="clip0">
<rect x="4" width="120" height="50" fill="white"/>
</clipPath>
</defs>
</svg>
