<svg width="50" height="50" viewBox="0 0 50 50" fill="none" xmlns="http://www.w3.org/2000/svg">
<rect width="50" height="50" fill="#14182C" fill-opacity="0.9"/>
<path fill-rule="evenodd" clip-rule="evenodd" d="M30.5815 18.1464C30.7767 17.9512 31.0933 17.9512 31.2886 18.1464C31.4838 18.3417 31.4838 18.6583 31.2886 18.8536L25.2782 24.8639L31.9957 31.5815C32.191 31.7767 32.191 32.0933 31.9957 32.2886C31.8005 32.4838 31.4839 32.4838 31.2886 32.2886L24.5711 25.571L17.8536 32.2886C17.6583 32.4838 17.3417 32.4838 17.1464 32.2886C16.9512 32.0933 16.9512 31.7767 17.1464 31.5815L23.864 24.8639L17.8536 18.8536C17.6583 18.6583 17.6583 18.3417 17.8536 18.1464C18.0489 17.9512 18.3654 17.9512 18.5607 18.1464L24.5711 24.1568L30.5815 18.1464Z" fill="#F5F5F5"/>
</svg>
