<svg width="120" height="50" viewBox="0 0 120 50" fill="none" xmlns="http://www.w3.org/2000/svg">
<rect width="50" height="50" fill="white"/>
<rect x="17" y="21" width="15" height="2" fill="#616161"/>
<rect x="17" y="24" width="15" height="2" fill="#616161"/>
<rect x="17" y="27" width="15" height="2" fill="#616161"/>
<rect x="70" width="50" height="50" fill="#14182C" fill-opacity="0.9"/>
<path fill-rule="evenodd" clip-rule="evenodd" d="M100.581 18.1464C100.777 17.9512 101.093 17.9512 101.289 18.1464C101.484 18.3417 101.484 18.6583 101.289 18.8536L95.2782 24.8639L101.996 31.5815C102.191 31.7767 102.191 32.0933 101.996 32.2886C101.8 32.4838 101.484 32.4838 101.289 32.2886L94.5711 25.571L87.8536 32.2886C87.6583 32.4838 87.3417 32.4838 87.1464 32.2886C86.9512 32.0933 86.9512 31.7767 87.1464 31.5815L93.864 24.8639L87.8536 18.8536C87.6583 18.6583 87.6583 18.3417 87.8536 18.1464C88.0489 17.9512 88.3654 17.9512 88.5607 18.1464L94.5711 24.1568L100.581 18.1464Z" fill="#F5F5F5"/>
</svg>
