<svg width="164" height="164" viewBox="0 0 164 164" fill="none" xmlns="http://www.w3.org/2000/svg">
<path d="M157.7 81.9C157.71 39.91 123.68 5.95998 81.7001 6.04998C39.7201 6.15998 5.68006 40.28 5.68006 82.28C5.67006 124.28 39.7001 158.24 81.6901 158.14C123.66 158.03 157.7 123.89 157.7 81.9ZM148.79 65.92C148.79 65.92 148.44 67.19 149.06 67.36C149.47 67.48 149.9 67.6 150 67.95C150.1 68.31 149.87 68.65 149.6 68.72C149.28 68.82 145.3 69.92 145.3 69.92C145.3 69.92 144.69 70.1 144.55 69.54C144.41 69.05 145.09 68.73 145.09 68.73C148.24 66.79 147.62 63.82 147.62 63.82L148.77 63.49C148.76 63.5 149.06 64.56 148.79 65.92ZM143.14 50.54C143.14 50.54 143.09 51.85 143.74 51.87C144.17 51.89 144.62 51.91 144.79 52.23C144.98 52.55 144.83 52.94 144.59 53.08C144.31 53.24 140.7 55.26 140.7 55.26C140.7 55.26 140.13 55.57 139.87 55.07C139.64 54.62 140.21 54.16 140.21 54.16C142.82 51.53 141.5 48.79 141.5 48.79L142.55 48.21C142.54 48.2 143.08 49.16 143.14 50.54ZM136 37.99L133.32 40.59C133.32 40.59 132.88 41.11 132.55 40.92C132.09 40.66 132.34 40.2 132.34 40.2C132.34 40.2 132.69 39.21 132.73 37.76C132.76 36.31 131.8 35.24 131.8 35.24L132.57 34.48L136 37.99ZM126.95 30.63C126.95 30.63 126.51 30 126.95 29.58C127.47 29.08 128.13 29.91 128.13 29.91L131.93 33.81L120.61 44.83L116.53 40.63C116.32 40.42 115.91 39.87 116.39 39.41C116.74 39.08 117.35 39.41 117.35 39.41C117.97 39.7 118.48 39.3 118.48 39.3L126.67 31.32C127.13 30.88 126.95 30.63 126.95 30.63ZM129.36 54.57L128.31 55.15C128.31 55.15 127.69 54.17 127.65 52.81C127.65 52.81 127.67 51.93 127.06 51.68C126.67 51.5 126.24 51.45 126.06 51.12C125.86 50.79 126.02 50.41 126.25 50.28C126.55 50.11 129.78 48.29 129.78 48.29C129.78 48.29 130.22 48.06 130.52 48.57C130.78 49.04 130.2 49.53 130.2 49.53C127.75 52.32 129.36 54.57 129.36 54.57ZM124.7 48.99L121.28 45.47L122.06 44.71C122.06 44.71 123.09 45.7 124.56 45.71C126.02 45.71 127 45.4 127 45.4C127 45.4 127.47 45.15 127.72 45.61C127.9 45.94 127.37 46.37 127.37 46.37L124.7 48.99ZM127.18 43.52C126.97 43.71 125.96 43.75 126.62 42.49C127.27 41.23 126.87 40.06 126.87 40.06L127.61 39.33C127.61 39.33 128.76 39.78 130.04 39.15C131.31 38.53 131.24 39.55 131.04 39.74L127.18 43.52ZM116.55 21.73L118.37 22.78C118.37 22.78 122.98 24.98 120.52 29.27C118.89 32.11 116.49 31.83 115.05 31.32C115.05 31.32 115.52 31.46 115.49 32.47L115.42 36.93C115.36 37.57 115.59 37.8 115.59 37.8C115.59 37.8 115.96 38.13 115.66 38.68C115.29 39.3 114.24 38.58 114.24 38.58L111.18 36.83C111.18 36.83 110.21 36.4 110.58 35.76C110.84 35.28 111.59 35.52 111.59 35.52C111.59 35.52 112.11 35.63 112.18 35.08C112.18 35.08 112.27 30.42 112.28 30.12C112.3 29.84 112 29.68 112 29.68L112.58 28.64C112.58 28.64 113.74 29.33 114.4 28.16L116.47 24.57C117.15 23.4 115.97 22.76 115.97 22.76L116.55 21.73ZM109.76 18.57C110.13 17.94 111 18.54 111 18.54L115.74 21.27L109.03 32.95C109.03 32.95 108.77 33.54 109.21 34.07C109.21 34.07 109.69 34.59 109.45 35C109.11 35.59 108.49 35.33 108.22 35.17L102.78 32.06C102.51 31.91 101.97 31.49 102.32 30.91C102.55 30.49 103.25 30.65 103.25 30.65C103.92 30.76 104.3 30.23 104.3 30.23L110 20.31C110.3 19.78 110.07 19.58 110.07 19.58C110.07 19.58 109.47 19.1 109.76 18.57ZM100.32 16.26L100.64 15.11L102.67 15.66C102.67 15.66 107.68 16.65 106.37 21.42C105.04 26.19 100.23 24.5 100.23 24.5L98.2001 23.94L98.5201 22.77C98.5201 22.77 99.8101 23.18 100.16 21.88L101.26 17.87C101.61 16.57 100.32 16.26 100.32 16.26ZM89.1301 27.54C89.2501 27.06 89.9501 27.05 89.9501 27.05C90.6401 26.99 90.8701 26.4 90.8701 26.4L93.9101 15.37C94.0801 14.77 93.8101 14.64 93.8101 14.64C93.8101 14.64 93.1001 14.32 93.2701 13.74C93.4601 13.05 94.4601 13.43 94.4601 13.43L99.7301 14.86L96.1401 27.84C96.1401 27.84 96.0301 28.48 96.59 28.88C96.59 28.88 97.1801 29.26 97.0501 29.72C96.8801 30.37 96.2001 30.27 95.9101 30.19L89.8601 28.54C89.5801 28.44 88.94 28.18 89.1301 27.54ZM82.7601 12.51C82.7601 12.51 83.8401 12.51 85.0801 13.15C85.0801 13.15 86.1901 13.85 86.5401 13.29C86.7701 12.92 87.0101 12.54 87.3701 12.55C87.7601 12.55 88.0101 12.87 88.0001 13.16C88.0001 13.48 87.9601 17.62 87.9601 17.62C87.9601 17.62 87.9601 18.26 87.3601 18.24C86.8501 18.23 86.7301 17.49 86.7301 17.49C85.7701 13.91 82.7401 13.72 82.7401 13.72L82.7601 12.51ZM77.6601 13.82C78.6601 12.95 80.2501 12.49 81.84 12.48L81.8201 13.71C80.9701 13.71 79.9801 13.91 79.4001 14.27C78.8501 14.63 78.59 15.09 78.5701 15.67C78.5701 16.16 78.7801 16.49 79.1901 16.69C79.6201 16.88 80.1501 17.03 80.7501 17.13L82.6401 17.49C84.3301 17.85 85.5401 18.47 86.4001 19.15C87.5401 20.04 88.7401 21.51 88.7201 23.05C88.7101 23.67 88.6501 24.26 88.4301 24.82C88.0001 25.94 87.1801 26.78 86.1501 27.4C85.1001 28.01 83.7301 28.3 82.5701 28.29L82.5801 27.06C83.2001 27.02 83.7101 26.86 84.3901 26.46C85.1301 26.03 85.4901 25.45 85.5201 24.66C85.4901 23.63 84.69 22.93 83.0601 22.52L81.2701 22.11C80.59 21.99 79.9701 21.81 79.4401 21.64C78.6901 21.42 78.0501 21.08 77.5401 20.65C77.0401 20.23 76.6601 19.74 76.4101 19.16C76.1601 18.59 76.05 17.97 76.0601 17.34C76.08 15.92 76.6101 14.75 77.6601 13.82ZM81.6701 27.1L81.6501 28.3C81.6501 28.3 80.4901 28.35 79.3001 27.71C79.3001 27.71 78.5401 27.26 78.0101 27.65C77.6701 27.91 77.4 28.26 77.0201 28.26C76.65 28.25 76.3901 27.94 76.4001 27.66C76.4001 27.33 76.4401 23.62 76.4401 23.62C76.4401 23.62 76.4501 23.12 77.0401 23.13C77.5901 23.13 77.7201 23.87 77.7201 23.87C78.9301 27.37 81.6701 27.1 81.6701 27.1ZM73.2601 24.08C73.6401 24.08 73.7601 24.76 73.7601 24.76L74.6801 28.36L69.9201 29.58L69.6501 28.52C69.6501 28.52 71.0301 28.12 71.7701 26.86C72.5001 25.6 72.7101 24.59 72.7101 24.59C72.7101 24.59 72.7301 24.06 73.2601 24.08ZM68.0201 22.07L67.7701 21.06C67.7701 21.06 68.7301 20.28 68.8301 18.87C68.9301 17.45 69.7801 18.03 69.8501 18.29L71.1701 23.51C71.2401 23.78 70.7701 24.68 70.0101 23.49C69.2301 22.29 68.0201 22.07 68.0201 22.07ZM70.8001 13.11L71.7201 16.72C71.7201 16.72 71.9401 17.35 71.6201 17.54C71.1501 17.82 70.8801 17.36 70.8801 17.36C70.8801 17.36 70.2101 16.57 68.9601 15.83C67.7301 15.07 66.3101 15.38 66.3101 15.38L66.0501 14.32L70.8001 13.11ZM59.8501 15.91L65.1401 14.56L69.0201 29.85L63.3501 31.3C63.0501 31.37 62.3801 31.47 62.2201 30.81C62.0901 30.35 62.7001 29.98 62.7001 29.98C63.2601 29.59 63.1701 28.95 63.1701 28.95L60.3601 17.88C60.2001 17.28 59.9001 17.3 59.9001 17.3C59.9001 17.3 59.1401 17.37 58.9901 16.78C58.7901 16.08 59.8501 15.91 59.8501 15.91ZM42.1201 24.8L53.3801 33.16C53.3801 33.16 53.8201 33.63 54.4701 33.46C54.4701 33.46 55.1301 33.22 55.4201 33.61C55.8201 34.14 55.3201 34.62 55.0801 34.79L50.0801 38.54C49.8401 38.73 49.2701 39.05 48.8601 38.51C48.5701 38.14 48.9801 37.56 48.9801 37.56C49.6101 36.84 49.0201 36.44 49.0201 36.44L47.5301 35.33L44.6301 37.5L43.8801 36.5L46.4701 34.56L38.5501 28.66L38.2201 27.73L42.1201 24.8ZM43.0601 40.91L39.0901 30.09L41.1101 31.59L44.2101 40.04C44.2101 40.04 44.4501 40.69 45.3001 40.32C45.3001 40.32 45.9601 40.1 46.2501 40.47C46.6401 41.01 46.1601 41.48 45.9201 41.66L44.1201 43C43.8901 43.19 43.3001 43.52 42.9001 42.98C42.6101 42.59 43.0201 42.02 43.0201 42.02C43.3801 41.44 43.0601 40.91 43.0601 40.91ZM31.3501 34.14L32.3301 32.94C32.3301 32.94 32.9301 32.06 33.4901 32.54C33.9101 32.88 33.6901 33.43 33.6901 33.43C33.6901 33.43 33.6201 33.66 33.9001 34.24L36.3601 40.52L34.7101 40.16L32.9101 35.43C32.6501 34.94 32.2001 35.24 32.2001 35.24C32.2001 35.24 31.5901 35.71 31.1701 35.36C30.6001 34.9 31.3501 34.14 31.3501 34.14ZM24.2301 42.75L27.7101 38.55C27.7101 38.55 28.3001 37.68 28.8601 38.14C29.2701 38.48 28.9401 39.18 28.9401 39.18C28.9401 39.18 28.7301 39.68 29.2701 39.83L37.7801 41.66L40.6301 44.01C40.6301 44.01 41.1601 44.36 41.7501 44.03C41.7501 44.03 42.3301 43.64 42.7101 43.95C43.2301 44.38 42.8701 44.95 42.6701 45.17L38.6901 49.99C38.5001 50.23 38.0101 50.69 37.5001 50.26C37.1301 49.96 37.3901 49.31 37.3901 49.31C37.6201 48.67 37.1701 48.23 37.1701 48.23L34.3101 45.85L25.8101 44.04C25.2101 43.86 24.9801 43.97 24.9801 43.97C24.9801 43.97 24.4801 44.3 24.0701 43.95C23.4901 43.51 24.2301 42.75 24.2301 42.75ZM12.2601 75.78L15.9901 75.77C15.9901 75.77 16.6601 75.7 16.7701 76.07C16.9101 76.59 16.4001 76.74 16.4001 76.74C16.4001 76.74 15.4701 77.2 14.4401 78.22C13.4101 79.25 13.3501 80.68 13.3501 80.68H12.2701V75.78H12.2601ZM17.0401 77.96L22.4201 77.94C22.7001 77.94 23.4501 78.62 22.1001 79.07C20.7701 79.52 20.2501 80.64 20.2501 80.64H19.2201C19.2201 80.64 18.7001 79.52 17.3501 79.08C16.0001 78.65 16.7701 77.96 17.0401 77.96ZM28.0301 87.43C28.0301 87.75 27.9401 88.41 27.2801 88.42C26.8001 88.42 26.5901 87.75 26.5901 87.75C26.3501 87.11 25.7001 87.05 25.7001 87.05L14.2701 87.08C13.6501 87.08 13.6001 87.38 13.6001 87.38C13.6001 87.38 13.4801 88.13 12.8701 88.14C12.1401 88.14 12.2501 87.08 12.2501 87.08V81.62L28.0201 81.58L28.0301 87.43ZM28.0501 80.65H26.9501C26.9501 80.65 26.9001 79.21 25.8701 78.2C24.8301 77.19 23.9101 76.73 23.9101 76.73C23.9101 76.73 23.4001 76.58 23.5401 76.06C23.6501 75.71 24.3201 75.76 24.3201 75.76H28.0501V80.65ZM28.3901 73.31C28.3101 73.59 28.0401 74.22 27.3901 74.03C26.9301 73.9 26.9201 73.19 26.9201 73.19C26.8701 72.51 26.2801 72.27 26.2801 72.27L15.3101 69.11C14.7101 68.94 14.5801 69.2 14.5801 69.2C14.5801 69.2 14.2501 69.9 13.6701 69.73C12.9801 69.53 13.3701 68.54 13.3701 68.54L14.8901 63.29L30.0301 67.67L28.3901 73.31ZM30.2901 66.8L29.1401 66.47C29.1401 66.47 29.5601 65.19 28.2501 64.8L17.9101 61.81C16.6201 61.44 16.2901 62.75 16.2901 62.75L15.1401 62.41C15.1401 62.41 16.9201 55.39 24.7401 57.64C32.5501 59.9 30.2901 66.8 30.2901 66.8ZM31.9501 59.63C31.5301 59.41 31.6701 58.72 31.6701 58.72C31.7701 58.04 31.2301 57.68 31.2301 57.68L21.2001 52.23C20.6601 51.94 20.4701 52.18 20.4701 52.18C20.4701 52.18 20.0001 52.79 19.4701 52.49C18.8401 52.14 19.4201 51.27 19.4201 51.27L22.0501 46.46C22.0501 46.46 22.4601 45.47 23.1001 45.82C23.6401 46.1 23.3701 46.82 23.3701 46.82C23.3701 46.82 23.2701 47.1 23.8201 47.4L33.8601 52.86C33.8601 52.86 34.4501 53.11 34.9701 52.66C34.9701 52.66 35.4701 52.17 35.8901 52.4C36.4901 52.72 36.2401 53.35 36.0801 53.61L33.0801 59.12C32.9401 59.41 32.5501 59.94 31.9501 59.63ZM48.0701 138.93C44.8401 140.73 42.1801 138.79 42.1801 138.79L42.8501 137.87C42.8501 137.87 45.0401 139.29 47.4701 137.98C47.4701 137.98 48.1301 137.57 48.4201 138.13C48.6601 138.57 48.0701 138.93 48.0701 138.93ZM49.6601 127.04C49.6601 127.04 48.6401 126.25 47.8901 127.29L41.8501 135.59C41.1001 136.63 42.1501 137.36 42.1501 137.36L41.4801 138.28C41.4801 138.28 35.7601 134.42 40.3301 128.14C44.9001 121.88 50.3401 126.11 50.3401 126.11L49.6601 127.04ZM51.2201 133.93C50.8301 133.65 51.1501 133.01 51.1501 133.01C52.3701 129.69 50.3701 127.54 50.3701 127.54L51.0501 126.61C51.0501 126.61 51.8701 127.22 52.4901 128.4C52.4901 128.4 52.9801 129.55 53.5501 129.31C53.9201 129.16 54.3201 128.99 54.6001 129.2C54.9001 129.41 54.9201 129.8 54.7601 130.02C54.5901 130.27 52.0401 133.77 52.0401 133.77C52.0401 133.77 51.6601 134.27 51.2201 133.93ZM56.0301 146.22C56.0301 146.22 49.5601 143.95 52.3901 136.72C55.2301 129.5 61.5301 132.21 61.5301 132.21L61.1101 133.28C61.1101 133.28 59.9301 132.79 59.4701 133.98L55.7201 143.53C55.2501 144.73 56.4401 145.15 56.4401 145.15L56.0301 146.22ZM56.8601 146.55L57.2801 145.48C57.2801 145.48 58.4401 145.97 58.9201 144.79L62.6801 135.24C63.1501 134.04 61.9601 133.62 61.9601 133.62L62.3701 132.55C62.3701 132.55 68.8401 134.82 66.0101 142.05C63.1701 149.25 56.8601 146.55 56.8601 146.55ZM72.9101 150.56L66.9901 149.75C66.7001 149.7 66.0701 149.54 66.1701 148.91C66.2301 148.44 66.9001 148.34 66.9001 148.34C67.5201 148.2 67.6801 147.61 67.6801 147.61L69.2101 136.82C69.3001 136.23 69.0101 136.14 69.0101 136.14C69.0101 136.14 68.3201 135.93 68.3801 135.36C68.4901 134.67 69.4701 134.91 69.4701 134.91L74.6401 135.63L72.8201 148.32C72.8201 148.32 72.8 148.94 73.3801 149.24C73.3801 149.24 73.98 149.54 73.9201 149.99C73.84 150.62 73.1901 150.61 72.9101 150.56ZM77.4201 140.62L76.7001 145.7C76.66 145.96 75.9201 146.59 75.6701 145.25C75.4301 143.93 74.4501 143.29 74.4501 143.29L74.5801 142.31C74.5801 142.31 75.7101 141.98 76.3201 140.76C76.9201 139.56 77.4601 140.35 77.4201 140.62ZM79.6401 139.91C79.6401 139.91 79.6001 140.56 79.2601 140.61C78.7501 140.68 78.6701 140.17 78.6701 140.17C78.6701 140.17 78.37 139.24 77.5301 138.12C76.7001 137 75.3701 136.78 75.3701 136.78L75.5101 135.74L80.1401 136.38L79.6401 139.91ZM89.5501 150.66L83.59 151.27C83.3101 151.3 82.66 151.29 82.6001 150.66C82.5401 150.2 83.1701 149.94 83.1701 149.94C83.76 149.65 83.7501 149.03 83.7501 149.03L82.6601 138.2C82.6001 137.61 82.3101 137.59 82.3101 137.59C82.3101 137.59 81.5701 137.55 81.5201 136.98C81.4501 136.29 82.4701 136.29 82.4701 136.29L87.6501 135.75L88.9201 148.5C88.9201 148.5 89.0501 149.1 89.6801 149.26C89.6801 149.26 90.3501 149.39 90.3901 149.85C90.4701 150.47 89.8401 150.61 89.5501 150.66ZM90.9701 144.83C90.4201 143.6 89.3001 143.22 89.3001 143.22L89.2101 142.24C89.2101 142.24 90.2201 141.64 90.5101 140.32C90.8001 139.01 91.5301 139.66 91.5501 139.92L92.0701 145.02C92.1001 145.28 91.5301 146.06 90.9701 144.83ZM93.3301 139.46C92.8601 139.65 92.6601 139.19 92.6601 139.19C92.6601 139.19 92.1401 138.35 91.0701 137.47C90.0001 136.59 88.6401 136.68 88.6401 136.68L88.5401 135.64L93.1901 135.16L93.5401 138.7C93.5401 138.7 93.6601 139.33 93.3301 139.46ZM100.24 148.73C99.9701 148.82 99.3401 148.97 99.1201 148.36C98.9601 147.94 99.5001 147.54 99.5001 147.54C100 147.11 99.8501 146.52 99.8501 146.52L96.1601 136.28C95.9601 135.72 95.6801 135.78 95.6801 135.78C95.6801 135.78 94.9601 135.92 94.7701 135.38C94.54 134.73 95.5201 134.48 95.5201 134.48L100.41 132.72L105.48 146.83L100.24 148.73ZM101.24 132.39L105.63 130.8L106.84 134.14C106.84 134.14 107.1 134.72 106.81 134.94C106.4 135.23 106.09 134.83 106.09 134.83C106.09 134.83 105.37 134.14 104.13 133.55C102.88 132.96 101.58 133.37 101.58 133.37L101.24 132.39ZM103.84 139.55L103.5 138.62C103.5 138.62 104.35 137.8 104.31 136.44C104.26 135.1 105.11 135.55 105.21 135.8L106.94 140.61C107.03 140.86 106.67 141.76 105.83 140.71C105.01 139.64 103.84 139.55 103.84 139.55ZM106.34 146.53L105.99 145.56C105.99 145.56 107.26 145.04 107.83 143.79C108.41 142.54 108.51 141.55 108.51 141.55C108.51 141.55 108.49 141.04 109.01 141C109.36 140.97 109.53 141.59 109.53 141.59L110.74 144.94L106.34 146.53ZM115.66 142.33C115.41 142.49 114.84 142.78 114.49 142.25C114.24 141.87 114.67 141.35 114.67 141.35C115.04 140.81 114.75 140.27 114.75 140.27L108.72 131.22C108.4 130.73 108.13 130.84 108.13 130.84C108.13 130.84 107.47 131.14 107.15 130.67C106.76 130.09 107.66 129.61 107.66 129.61L112 126.73L120.3 139.23L115.66 142.33ZM116.67 129.43C116.32 128.14 117.26 128.36 117.4 128.58L120.23 132.85C120.38 133.07 120.23 134.04 119.18 133.2C118.12 132.37 116.95 132.56 116.95 132.56L116.41 131.74C116.41 131.73 117.02 130.74 116.67 129.43ZM118.76 127.37C118.43 127.76 118.04 127.45 118.04 127.45C118.04 127.45 117.19 126.94 115.84 126.66C114.48 126.39 113.31 127.1 113.31 127.1L112.73 126.24L116.63 123.64L118.59 126.61C118.59 126.6 118.99 127.09 118.76 127.37ZM121.05 138.76L120.47 137.89C120.47 137.89 121.59 137.09 121.85 135.71C122.12 134.36 121.99 133.39 121.99 133.39C121.99 133.39 121.85 132.91 122.34 132.75C122.67 132.64 122.97 133.19 122.97 133.19L124.95 136.15L121.05 138.76ZM81.6801 130.87C54.7401 130.94 32.9201 109.16 32.9201 82.21C32.9201 55.27 54.7501 33.37 81.6801 33.3C108.62 33.24 130.45 55.03 130.45 81.97C130.46 108.92 108.62 130.81 81.6801 130.87ZM128.76 55.95L129.83 55.34C130.18 55.87 130.57 56.22 131.26 56.61C131.97 57.03 132.67 57.07 133.36 56.69C134.24 56.16 134.45 55.11 133.99 53.49L133.46 51.74C133.25 51.08 133.08 50.47 132.97 49.91C132.81 49.15 132.77 48.42 132.89 47.78C132.99 47.14 133.25 46.56 133.62 46.05C133.99 45.55 134.46 45.14 135.03 44.84C136.28 44.13 137.55 43.99 138.87 44.43C140.14 44.87 141.32 46.03 142.11 47.38L141.03 47.99C140.61 47.26 139.95 46.49 139.34 46.18C138.76 45.87 138.23 45.88 137.72 46.15C137.29 46.4 137.1 46.75 137.15 47.2C137.19 47.68 137.32 48.2 137.53 48.78L138.15 50.59C138.68 52.24 138.74 53.6 138.59 54.7C138.37 56.11 137.69 57.9 136.36 58.66C135.81 58.97 135.27 59.21 134.67 59.29C133.5 59.48 132.36 59.2 131.31 58.61C130.26 58.03 129.33 56.97 128.76 55.95ZM133.2 64.45C133.2 64.45 133.43 63.6 132.92 63.2C132.58 62.94 132.16 62.79 132.07 62.43C131.96 62.07 132.2 61.74 132.47 61.66C132.79 61.56 136.36 60.57 136.36 60.57C136.36 60.57 136.83 60.43 137 61.01C137.13 61.53 136.45 61.87 136.45 61.87C133.44 64.01 134.45 66.57 134.45 66.57L133.29 66.9C133.29 66.89 132.93 65.79 133.2 64.45ZM133.55 67.78L134.73 67.45C134.94 68.03 135.24 68.48 135.81 69.02C136.41 69.6 137.08 69.79 137.84 69.59C138.82 69.29 139.28 68.31 139.21 66.63L139.11 64.81C139.04 64.11 139.03 63.46 139.06 62.91C139.07 62.11 139.22 61.41 139.49 60.81C139.74 60.21 140.12 59.71 140.6 59.31C141.09 58.91 141.65 58.62 142.26 58.47C143.62 58.06 144.91 58.24 146.07 58.99C147.19 59.7 148.07 61.1 148.52 62.62L147.34 62.96C147.09 62.13 146.64 61.25 146.12 60.79C145.63 60.37 145.11 60.23 144.55 60.39C144.08 60.52 143.81 60.82 143.74 61.27C143.68 61.74 143.68 62.28 143.74 62.9L143.92 64.8C144.04 66.54 143.78 67.87 143.37 68.89C142.83 70.23 141.76 71.8 140.27 72.21C139.66 72.37 139.09 72.49 138.49 72.44C137.31 72.33 136.26 71.79 135.38 70.96C134.52 70.14 133.86 68.9 133.55 67.78ZM143.16 72.91C151.29 72.72 151.19 79.93 151.19 79.93L149.99 79.95C149.99 79.95 150 78.62 148.65 78.65L137.89 78.9C136.55 78.93 136.6 80.28 136.6 80.28L135.4 80.3C135.41 80.3 135.02 73.1 143.16 72.91ZM135.44 81.24L136.63 81.22C136.63 81.22 136.63 82.56 137.97 82.52L148.73 82.27C150.08 82.24 150.01 80.9 150.01 80.9L151.2 80.88C151.2 80.88 151.61 88.07 143.47 88.26C135.34 88.45 135.44 81.24 135.44 81.24Z" fill="#31287C"/>
<path d="M81.61 41.12C59.03 41.17 40.63 59.59 40.64 82.19C40.63 104.78 59.02 123.13 81.6 123.07C104.19 123.02 122.57 104.58 122.58 81.99C122.58 59.4 104.2 41.06 81.61 41.12ZM81.68 120.45C60.5 120.51 43.33 103.37 43.34 82.18C43.35 61 60.52 43.78 81.7 43.73C102.88 43.68 120.05 60.81 120.05 81.99C120.04 103.18 102.87 120.4 81.68 120.45Z" fill="#31287C"/>
<path d="M81.6901 35.94C56.2001 36.01 35.5601 56.72 35.5601 82.2C35.5601 107.69 56.2001 128.3 81.6801 128.23C107.16 128.17 127.82 107.46 127.83 81.98C127.82 56.49 107.17 35.88 81.6901 35.94ZM81.6101 126.27C57.2601 126.33 37.4501 106.55 37.4601 82.2C37.4601 57.85 57.2601 37.99 81.6201 37.93C105.97 37.87 125.78 57.63 125.78 81.98C125.77 106.33 105.96 126.21 81.6101 126.27Z" fill="#31287C"/>
<path d="M125.57 13.02L121.08 15.34L125.37 18.08L125.57 13.02Z" fill="#31287C"/>
<path d="M114.87 7.26998L110.76 10.26L115.42 12.31L114.87 7.26998Z" fill="#31287C"/>
<path d="M109.21 5.01998L105.34 8.29998L110.14 10.01L109.21 5.01998Z" fill="#31287C"/>
<path d="M120.33 9.94998L116.02 12.61L120.5 15.01L120.33 9.94998Z" fill="#31287C"/>
<path d="M97.42 1.81998L94.08 5.63998L99.09 6.60998L97.42 1.81998Z" fill="#31287C"/>
<path d="M103.4 3.20998L99.78 6.75998L104.69 8.08998L103.4 3.20998Z" fill="#31287C"/>
<path d="M85.26 0.419983L82.53 4.68998L87.61 4.87998L85.26 0.419983Z" fill="#31287C"/>
<path d="M91.3599 0.879982L88.3199 4.95998L93.3799 5.52998L91.3599 0.879982Z" fill="#31287C"/>
<path d="M151.42 48.29L154.11 43.99L149.04 43.78L151.42 48.29Z" fill="#31287C"/>
<path d="M157.13 64.57L160.71 60.98L155.83 59.65L157.13 64.57Z" fill="#31287C"/>
<path d="M158.21 70.24L162.05 66.91L157.27 65.21L158.21 70.24Z" fill="#31287C"/>
<path d="M155.64 59L158.94 55.15L153.98 54.19L155.64 59Z" fill="#31287C"/>
<path d="M130.6 16.46L125.93 18.45L130 21.51L130.6 16.46Z" fill="#31287C"/>
<path d="M158.85 75.96L162.93 72.94L158.29 70.89L158.85 75.96Z" fill="#31287C"/>
<path d="M159.08 81.72L163.36 79.01L158.91 76.62L159.08 81.72Z" fill="#31287C"/>
<path d="M134.37 25.25L135.33 20.28L130.53 21.92L134.37 25.25Z" fill="#31287C"/>
<path d="M138.46 29.33L139.78 24.44L134.87 25.71L138.46 29.33Z" fill="#31287C"/>
<path d="M148.72 43.2L151.08 38.71L146.02 38.87L148.72 43.2Z" fill="#31287C"/>
<path d="M145.64 38.33L147.68 33.68L142.62 34.22L145.64 38.33Z" fill="#31287C"/>
<path d="M153.74 53.56L156.73 49.48L151.7 48.9L153.74 53.56Z" fill="#31287C"/>
<path d="M142.2 33.69L143.89 28.9L138.9 29.82L142.2 33.69Z" fill="#31287C"/>
<path d="M130.17 142.34L134.97 143.97L134.04 139L130.17 142.34Z" fill="#31287C"/>
<path d="M125.55 145.79L130.21 147.78L129.66 142.75L125.55 145.79Z" fill="#31287C"/>
<path d="M134.53 138.54L139.43 139.82L138.14 134.92L134.53 138.54Z" fill="#31287C"/>
<path d="M145.76 125.38L150.82 125.54L148.5 121.06L145.76 125.38Z" fill="#31287C"/>
<path d="M142.35 130.04L147.38 130.58L145.38 125.93L142.35 130.04Z" fill="#31287C"/>
<path d="M148.82 120.48L153.88 120.27L151.22 115.97L148.82 120.48Z" fill="#31287C"/>
<path d="M151.51 115.36L156.53 114.78L153.55 110.7L151.51 115.36Z" fill="#31287C"/>
<path d="M120.69 148.89L125.18 151.22L125 146.16L120.69 148.89Z" fill="#31287C"/>
<path d="M119.9 154.29L120.1 149.23L115.61 151.63L119.9 154.29Z" fill="#31287C"/>
<path d="M97.0001 162.4L98.6901 157.62L93.6801 158.57L97.0001 162.4Z" fill="#31287C"/>
<path d="M84.91 163.79L87.29 159.32L82.2 159.53L84.91 163.79Z" fill="#31287C"/>
<path d="M90.98 163.31L93.02 158.67L87.96 159.27L90.98 163.31Z" fill="#31287C"/>
<path d="M102.94 161.02L104.26 156.13L99.34 157.46L102.94 161.02Z" fill="#31287C"/>
<path d="M114.42 156.96L115.01 151.91L110.34 153.98L114.42 156.96Z" fill="#31287C"/>
<path d="M108.76 159.2L109.71 154.23L104.9 155.92L108.76 159.2Z" fill="#31287C"/>
<path d="M138.59 134.42L143.57 135.35L141.92 130.56L138.59 134.42Z" fill="#31287C"/>
<path d="M158.25 93.29L162.89 91.23L158.84 88.21L158.25 93.29Z" fill="#31287C"/>
<path d="M157.2 99L161.96 97.3L158.15 93.98L157.2 99Z" fill="#31287C"/>
<path d="M158.88 87.51L163.35 85.12L159.08 82.41L158.88 87.51Z" fill="#31287C"/>
<path d="M153.81 110.08L158.77 109.12L155.5 105.25L153.81 110.08Z" fill="#31287C"/>
<path d="M155.7 104.62L160.58 103.29L157.03 99.69L155.7 104.62Z" fill="#31287C"/>
<path d="M6.26005 99.77L2.68005 103.36L7.57005 104.7L6.26005 99.77Z" fill="#31287C"/>
<path d="M37.7101 18.49L33.0601 16.5L33.6301 21.54L37.7101 18.49Z" fill="#31287C"/>
<path d="M42.58 15.38L38.08 13.04L38.26 18.11L42.58 15.38Z" fill="#31287C"/>
<path d="M28.75 25.75L23.84 24.48L25.14 29.37L28.75 25.75Z" fill="#31287C"/>
<path d="M24.9899 134.97L23.6899 139.86L28.5899 138.58L24.9899 134.97Z" fill="#31287C"/>
<path d="M43.35 9.97998L43.15 15.03L47.64 12.64L43.35 9.97998Z" fill="#31287C"/>
<path d="M21.2401 130.62L19.5601 135.4L24.5501 134.49L21.2401 130.62Z" fill="#31287C"/>
<path d="M29.08 139.04L28.14 144.03L32.93 142.37L29.08 139.04Z" fill="#31287C"/>
<path d="M17.79 125.99L15.77 130.65L20.81 130.1L17.79 125.99Z" fill="#31287C"/>
<path d="M48.83 7.29998L48.24 12.34L52.93 10.26L48.83 7.29998Z" fill="#31287C"/>
<path d="M32.88 147.83L37.53 145.83L33.45 142.79L32.88 147.83Z" fill="#31287C"/>
<path d="M11.9999 116.04L9.31995 120.34L14.3899 120.54L11.9999 116.04Z" fill="#31287C"/>
<path d="M14.72 121.13L12.36 125.6L17.42 125.44L14.72 121.13Z" fill="#31287C"/>
<path d="M4.50994 88.37L0.439941 91.4L5.07994 93.45L4.50994 88.37Z" fill="#31287C"/>
<path d="M24.68 29.87L19.7 28.95L21.36 33.74L24.68 29.87Z" fill="#31287C"/>
<path d="M4.47001 76.81L0.0100098 79.21L4.27001 81.92L4.47001 76.81Z" fill="#31287C"/>
<path d="M7.75996 105.33L4.45996 109.19L9.43996 110.15L7.75996 105.33Z" fill="#31287C"/>
<path d="M5.17998 94.1L1.34998 97.43L6.09998 99.11L5.17998 94.1Z" fill="#31287C"/>
<path d="M5.09996 71.05L0.459961 73.1L4.51996 76.11L5.09996 71.05Z" fill="#31287C"/>
<path d="M9.67995 110.76L6.69995 114.85L11.71 115.44L9.67995 110.76Z" fill="#31287C"/>
<path d="M4.27 82.61L0 85.33L4.46 87.7L4.27 82.61Z" fill="#31287C"/>
<path d="M17.53 38.94L12.48 38.76L14.81 43.25L17.53 38.94Z" fill="#31287C"/>
<path d="M6.15 65.33L1.37 67.03L5.21 70.34L6.15 65.33Z" fill="#31287C"/>
<path d="M20.94 34.26L15.91 33.72L17.91 38.38L20.94 34.26Z" fill="#31287C"/>
<path d="M14.48 43.82L9.42004 44.04L12.09 48.34L14.48 43.82Z" fill="#31287C"/>
<path d="M11.8 48.96L6.78003 49.54L9.76003 53.62L11.8 48.96Z" fill="#31287C"/>
<path d="M7.62999 59.69L2.73999 61.04L6.29999 64.62L7.62999 59.69Z" fill="#31287C"/>
<path d="M9.51004 54.25L4.54004 55.21L7.83004 59.05L9.51004 54.25Z" fill="#31287C"/>
<path d="M33.09 21.95L28.3 20.33L29.23 25.3L33.09 21.95Z" fill="#31287C"/>
<path d="M78.34 0.419983L75.95 4.88998L81.06 4.68998L78.34 0.419983Z" fill="#31287C"/>
<path d="M72.26 0.909981L70.23 5.54998L75.3 4.95998L72.26 0.909981Z" fill="#31287C"/>
<path d="M48.6301 156.99L52.7201 154.01L48.0601 151.95L48.6301 156.99Z" fill="#31287C"/>
<path d="M66.2401 1.84998L64.5601 6.62998L69.5601 5.64998L66.2401 1.84998Z" fill="#31287C"/>
<path d="M60.3 3.22998L58.99 8.10998L63.91 6.76998L60.3 3.22998Z" fill="#31287C"/>
<path d="M66.08 162.42L69.41 158.6L64.4 157.64L66.08 162.42Z" fill="#31287C"/>
<path d="M72.14 163.34L75.18 159.27L70.11 158.7L72.14 163.34Z" fill="#31287C"/>
<path d="M54.28 159.22L58.15 155.95L53.35 154.26L54.28 159.22Z" fill="#31287C"/>
<path d="M60.09 161.04L63.71 157.48L58.79 156.14L60.09 161.04Z" fill="#31287C"/>
<path d="M78.24 163.81L80.98 159.53L75.88 159.33L78.24 163.81Z" fill="#31287C"/>
<path d="M54.49 5.03999L53.54 10.03L58.35 8.30999L54.49 5.03999Z" fill="#31287C"/>
<path d="M43.15 154.33L47.46 151.67L42.97 149.27L43.15 154.33Z" fill="#31287C"/>
<path d="M37.9 151.27L42.38 148.93L38.08 146.19L37.9 151.27Z" fill="#31287C"/>
<path d="M97.6601 51.42C97.9401 52.53 97.5901 53.5 97.2401 54.46C96.2501 56.58 97.3001 58.19 99.4901 58.78L103.01 53.79C103.52 51.45 100.89 50.95 99.4601 49.75C97.3901 49.13 95.4501 47.32 93.1701 47.86C91.0901 49.1 90.9001 51.93 90.0601 54.05C92.9601 56.11 95.0401 51.92 97.6601 51.42ZM100.75 53.88C100.58 54.42 100.25 54.21 99.8701 54.23C99.5001 54.09 99.5501 53.74 99.4301 53.49C99.6501 52.44 101.42 53.13 100.75 53.88ZM93.5801 50.34C93.7201 49.42 95.0701 49.73 94.9001 50.55C94.6901 51.16 94.2301 51.32 93.7301 51.09C93.7501 50.81 93.4501 50.54 93.5801 50.34Z" fill="#31287C"/>
<path d="M101.24 59.9C102.91 62.56 105.83 59.48 107.96 59.03L108.42 59.32C108.29 61.8 103.75 64.38 107.01 66.6C108.85 65.02 112.68 65.2 112.62 62.03C111.28 59.14 108.74 57.12 106.42 54.89C103.6 54.71 102.28 58.02 101.24 59.9ZM110.36 61.4C110.81 61.71 110.85 62.09 110.71 62.56C110.29 62.93 109.42 63 109.32 62.31C109.21 61.76 109.96 61.33 110.36 61.4ZM106.53 57.83C106.39 58.19 106.08 58.37 105.71 58.39C105.38 58.18 105.03 57.86 105.22 57.43C105.35 56.96 105.88 56.85 106.18 56.95C106.26 57.27 106.86 57.47 106.53 57.83Z" fill="#31287C"/>
<path d="M83.68 48.17L84.48 47.94C84.53 48.99 85.44 50.13 85.01 51.23C84.65 53.48 86.87 53.44 88.23 53.49C88.54 51.02 91.65 48.35 89.32 46.01C86.17 45.07 82.91 44.71 79.5 45.16C77.17 47.06 77.97 50.34 78.52 53.18C81.51 53.65 81.81 49.52 83.68 48.17ZM86.34 48.5C86.71 47.92 87.95 47.98 87.92 48.88C87.71 49.2 87.48 49.43 87.09 49.45C86.71 49.19 86.27 49.02 86.34 48.5ZM81.64 47.66C81.33 48.12 80.96 48.14 80.49 48.02C80.26 47.95 80.29 47.62 80.24 47.4C80.34 46.27 81.72 46.98 81.64 47.66Z" fill="#31287C"/>
<path d="M108.18 69.57C108.59 72.32 112.04 70.42 113.97 70.84C113.55 73.05 111.14 73.78 110.01 75.54C110.45 76.54 109.97 77.72 110.75 78.49L115.67 77.72C119.31 75.48 115.92 71.08 115.79 68.04C115.26 65.59 112.34 65.72 110.53 66.65C109.55 67.33 107.03 67.53 108.18 69.57ZM114.63 75.22C114.43 75.65 114.03 76.13 113.55 75.89C113.48 75.57 113.23 75.23 113.2 75.02C113.37 74.59 113.84 74.44 114.21 74.57C114.55 74.61 114.51 74.96 114.63 75.22ZM111.95 68.42C112.24 68.15 112.35 67.67 112.79 67.86C113.12 68.06 113.33 68.3 113.35 68.69C113.15 69.29 112.67 69.44 112.18 69.22C111.92 69.05 111.79 68.68 111.95 68.42Z" fill="#31287C"/>
<path d="M70.91 50.18C72.4 51.16 73.39 52.88 74.8 54.08C75.51 53.99 75.99 53.65 76.5 53.44C76.08 50.95 77.11 47.4 74.32 46.04C70.84 46.73 66.51 47.61 64.8 51.09C64.65 53.58 66.47 55.3 67.71 57.22C72.19 56.99 69.46 52.27 70.91 50.18ZM72.73 48.8C73.06 47.99 74.46 48.54 73.95 49.3C73.63 49.38 73.47 49.64 73.08 49.66C72.48 49.46 72.69 49.14 72.73 48.8ZM67.07 52.12C67.05 51.73 67.37 50.84 67.87 51.17C68.52 51.32 68.35 51.85 68.28 52.27C67.85 52.35 67.34 52.56 67.07 52.12Z" fill="#31287C"/>
<path d="M110.64 80.47C111.03 81.28 110.51 81.95 110.67 82.69C112.26 83.64 114.33 84.24 115.45 85.52C113.57 86.14 111.85 86.96 109.81 87.39C109.63 88.66 108.69 89.97 109.18 91.21C111.35 91.69 113.27 93.12 115.63 92.72C117.66 91.56 117.6 89.13 118.1 87.24C118.22 85.19 118.22 82.81 117.81 80.88C116.11 78.41 112.82 80.22 110.64 80.47ZM115.05 89.94L114.68 90.53C114.07 90.6 113.31 89.92 113.85 89.36C114.07 88.76 115.56 89 115.05 89.94ZM116.38 82.82C116.2 83.53 115.64 83.25 115.23 83.17C114.75 82.77 114.87 81.74 115.71 81.72C116.09 81.97 116.61 82.32 116.38 82.82Z" fill="#31287C"/>
<path d="M59.09 64.42C62.04 62.84 58.41 59.93 58.7 57.54C61.23 57.45 64.07 61.12 66.04 58.35L62.83 53.15C59.22 51.62 56.92 56.31 54.44 58.57C54.39 61.48 57.02 62.8 59.09 64.42ZM62.05 55.75C61.75 56.21 61.37 56.24 60.89 56.11C60.66 56.05 60.7 55.72 60.66 55.5C61.01 54.81 62.08 54.86 62.05 55.75ZM56.32 59.49C56.49 58.68 57.87 58.93 57.59 59.94C57.26 60.01 57.03 60.51 56.69 60.2C56.5 60.06 56 59.85 56.32 59.49Z" fill="#31287C"/>
<path d="M108.64 92.97C108.01 93.67 107.9 94.52 107.57 95.31C108.62 96.65 110.29 97.64 110.97 99.27C108.57 100.01 105.11 97.68 103.91 100.95C104.89 102.41 107.03 103.07 108.27 104.42C109.6 104.91 111.28 104.16 111.95 102.84C112.73 100.22 116.45 97.75 114.32 95.09L108.64 92.97ZM109.71 102.22C109.45 102.61 109.11 103.13 108.62 102.9C107.9 102.44 108.08 101.62 108.69 101.38C109.08 101.35 109.85 101.58 109.71 102.22ZM113.14 97.64C112.69 98.18 112.33 97.75 111.88 97.46C111.51 97.04 112.01 96.27 112.59 96.36C113.17 96.46 113.22 97.23 113.14 97.64Z" fill="#31287C"/>
<path d="M53.0799 74.24C55.9399 71.4 50.9399 70.19 50.6599 67.8C53.1299 66.82 56.8899 70.36 57.7999 66C55.8999 64.67 54.2599 61.39 51.4499 62.61C49.6199 65.01 48.2399 67.98 47.4399 70.78C48.2299 73.22 51.1699 73.37 53.0799 74.24ZM53.2099 64.56C53.4699 65.01 53.4899 65.13 53.4399 65.64L52.4099 65.79C52.0199 65.26 52.5699 64.43 53.2099 64.56ZM49.3799 70.46C49.7599 69.87 50.7799 70.55 50.5599 71.04C50.4099 71.41 50.1099 71.59 49.7299 71.61C49.2899 71.32 49.2499 70.93 49.3799 70.46Z" fill="#31287C"/>
<path d="M102.36 102.51C99.97 104.08 102.44 107.07 102.65 108.86C100.72 108.89 99.08 106.73 97.08 106.99C96.59 107.31 95.96 108.02 96.2 108.63C97.69 110.42 97.5 114.53 100.89 113.7C103.13 111.94 105.35 110.23 107.11 107.8C107.3 105.24 104.46 103.96 102.36 102.51ZM100.06 111.86C99.62 111.69 99.48 111.22 99.62 110.85C99.87 110.18 101.01 110.55 100.88 111.31C100.79 111.6 100.45 111.84 100.06 111.86ZM105.54 107.23C105.35 107.67 104.88 107.81 104.53 107.68C104.06 107.28 104.45 106.53 104.99 106.41C105.2 106.65 105.83 106.78 105.54 107.23Z" fill="#31287C"/>
<path d="M50.44 85.5C51.51 85.55 51.9901 84.39 51.8301 83.36C50.1001 81.79 48 81.61 46.43 80.5C47.94 79.18 50.08 78.83 51.71 77.76C53.75 75.04 49.13 75.36 47.89 74.17C46.88 74.17 45.8401 74.78 45.4001 75.88C45.0301 78.86 44.4601 82 45.2201 85.06C46.4101 86.93 48.82 85.75 50.44 85.5ZM47.9001 76.12C48.2301 76.33 48.43 76.57 48.46 76.95C48.07 77.15 47.81 78.09 47.25 77.54C46.91 76.96 47.1901 76.11 47.9001 76.12ZM47.5 83.23C47.83 83.44 48.5601 83.73 47.9901 84.2C47.8401 84.74 47.5 84.52 47.16 84.49C46.68 84.08 46.79 83.22 47.5 83.23Z" fill="#31287C"/>
<path d="M90.89 114.85L90.36 114.97C88.83 113.33 87.83 109.66 84.81 110.91C84.29 112.98 84.4 115.52 84.97 117.45C87.75 120.09 91.96 117.58 95.19 116.72C98.82 114.38 94.53 111.23 94.07 108.54C91.05 108.97 91.73 112.73 90.89 114.85ZM87.63 116.05C87.32 115.96 86.67 116.26 86.64 115.61C86.57 115.01 87.27 114.64 87.77 114.85C88.12 115.18 88.01 115.76 87.63 116.05ZM94.43 114.5C94.19 114.43 94.03 114.69 93.94 114.82C93.47 114.98 93.02 114.41 93.21 113.98C93.55 112.91 94.89 113.67 94.43 114.5Z" fill="#31287C"/>
<path d="M48.8999 92.97C49.9099 91.7 51.4399 91.03 52.5699 90.02C52.3999 88.98 52.0299 88 52.0999 87.05L47.4499 87.98C46.5999 88.72 46.2199 89.31 45.9399 90.32C47.1799 92.96 47.7499 96 49.3699 98.34C51.7499 99.61 53.3399 97.04 55.2499 96.35C55.2399 92.39 50.6699 94.77 48.8999 92.97ZM48.0299 89.92C48.1799 89.01 49.5299 89.32 49.3599 90.14C49.2099 90.52 48.9899 90.73 48.5999 90.75C48.2399 90.61 48.0599 90.31 48.0299 89.92ZM50.7999 96.41L50.2199 96.03L50.8399 95.05C51.1599 95.26 51.5999 95.46 51.5399 95.96C51.5099 96.32 51.1199 96.34 50.7999 96.41Z" fill="#31287C"/>
<path d="M78.05 115.55C76.78 114.09 77.41 110.44 74.57 110.44C73.95 112.52 72.23 114.34 72.8 116.56C74.98 118.71 78.69 118.54 81.59 118.31C83.53 116.44 82.89 113.34 82.48 111.14C79.86 110.93 80.15 114.42 78.05 115.55ZM75.04 115.8C74.68 115.66 74.46 115.43 74.43 115.04C74.64 114.16 75.93 114.43 75.87 115.23C75.71 115.6 75.41 115.78 75.04 115.8ZM80.53 116.52C80.07 116.4 79.91 115.94 80.06 115.56C80.31 114.9 81.48 115.2 81.36 115.95C81.14 116.16 80.96 116.88 80.53 116.52Z" fill="#31287C"/>
<path d="M56.0201 104.63C55.6601 104.49 54.9401 104.76 55.0601 104L57.1301 99.83C56.6501 98.32 55.3601 97.76 54.1701 99.02C52.9401 100.06 51.0501 100.58 51.4501 102.49C53.3801 104.75 55.3301 107.4 57.7401 109.06C59.9201 108.54 60.6801 106.1 62.2001 104.6C60.6801 101.86 57.9701 104.61 56.0201 104.63ZM54.6701 101.92C54.5901 102.33 54.2501 102.29 53.9201 102.35C53.5701 102.04 53.0801 101.25 53.9201 101.08C54.4001 100.92 54.8501 101.5 54.6701 101.92ZM58.9301 106.25C58.8901 106.6 58.4401 106.58 58.1901 106.69C57.8501 106.46 57.6401 106.24 57.6201 105.86C57.7501 104.93 59.4101 105.36 58.9301 106.25Z" fill="#31287C"/>
<path d="M65.43 112.21C64.8 110.79 65.78 109.13 66 107.52L63.34 105.79L60.68 109.6C60.1 113.18 65.23 114.19 67.51 116.05L68.85 115.99C71.68 115.43 71.46 112.25 72.59 110.22C69.92 108.12 67.9 111.79 65.43 112.21ZM62.59 110.37C62.52 110.04 62.9 109.46 63.37 109.58C63.73 109.74 63.91 110.03 63.94 110.41C63.62 110.76 62.84 111.26 62.59 110.37ZM69.12 113.31C68.95 113.57 68.7 113.96 68.38 113.73C68.05 113.53 67.84 113.3 67.81 112.92C68.17 112.24 69.39 112.48 69.12 113.31Z" fill="#31287C"/>
<path d="M84.88 54.83C82.38 54.85 79.32 54.17 77.42 55.14L80.38 55.95L84.88 54.83Z" fill="#31287C"/>
<path d="M87.07 56.24C80.34 57.14 74.97 60.46 70.33 64.62L70.65 64.83C76.44 62.88 82.17 63.38 87.23 60.4C87.39 59.03 87.52 57.56 87.07 56.24Z" fill="#31287C"/>
<path d="M69.8 58.13C72.54 58.15 75.53 59.63 77.86 57.17C75.25 56.23 72.05 56.08 69.8 58.13Z" fill="#31287C"/>
<path d="M77.8999 91.51C80.3599 92.65 86.7199 94.45 88.8199 93.77C88.8199 93.77 88.9399 86.92 89.2299 83.69C93.2099 83.5 93.9699 83.64 97.7599 82.88C98.8399 82.75 99.4799 82.02 99.0299 80.65C96.6699 75.64 93.5699 72.76 89.7399 70.12C86.2199 68.76 87.4899 65.26 87.0299 63.12L84.5299 63.88L84.8399 64.1C86.3399 64.89 86.4199 67.32 86.2299 68.75C86.2099 70.76 83.0199 71 84.3499 73.05C84.1099 73.54 83.6799 73.81 83.1299 73.82C78.4099 70.76 73.1199 69.72 68.2899 67.24C65.8399 69.61 63.8399 73.37 63.4399 76.7C63.5199 84.22 64.2199 92.77 69.2399 98.6C73.4399 104.72 81.2099 109.03 88.4999 108.7C89.0299 102.51 88.0999 102.04 88.8599 95.91C83.0299 95.27 80.5199 95.13 76.1899 92.52C75.8699 92.03 75.4199 91.65 76.0399 91.12C76.4899 90.69 77.4699 91.33 77.8999 91.51ZM81.0499 85.47C80.6399 85.67 80.3499 86.12 79.9699 85.88C79.5199 85.68 79.0599 85.28 79.2899 84.78C79.7999 84.01 81.8099 84.31 81.0499 85.47ZM82.3199 83.04C81.9199 83.23 81.6199 83.69 81.2399 83.43C80.8099 83.25 80.3399 82.85 80.5699 82.35C81.0699 81.57 83.0899 81.87 82.3199 83.04ZM81.4499 80.48C81.4199 80.1 81.7199 79.36 82.3499 79.5C82.6799 79.71 83.1099 79.9 83.0499 80.41C82.7299 81.05 81.7599 81.43 81.4499 80.48ZM82.9599 78.15C82.8399 78.61 82.3699 78.78 82.0099 78.63C81.5299 78.51 81.5399 77.78 81.6499 77.48C82.0199 76.62 83.4699 77.37 82.9599 78.15ZM81.8499 75.21C82.2799 75.67 82.1199 76.49 81.4899 76.74L80.5199 76.1C80.5599 75.49 81.2299 74.74 81.8499 75.21ZM79.3099 74.02C79.4299 73.55 79.8899 73.4 80.2599 73.55C80.7399 73.67 80.7599 74.33 80.6599 74.63C80.5499 75.11 79.8099 75.09 79.5199 74.99C79.4399 74.67 78.8199 74.35 79.3099 74.02ZM78.8999 86.1C79.3699 86.23 79.5299 86.7 79.3799 87.06C79.1499 87.83 78.5199 87.7 77.9799 87.52C77.5999 86.82 78.1599 85.99 78.8999 86.1ZM77.6899 72.71C78.2799 72.92 78.5299 73.52 78.3699 74.06C78.0399 74.69 77.0099 74.3 76.8399 73.73C76.5999 73.11 77.4299 73.08 77.6899 72.71ZM68.4499 76.47C68.9299 76.42 69.6399 76.88 69.3299 77.51C69.2099 77.98 68.7199 77.75 68.3099 77.96C67.7299 77.57 67.6499 76.69 68.4499 76.47ZM66.9699 79.01C67.6599 77.8 69.0899 79.55 67.7799 80.18C67.3699 79.81 66.3999 79.75 66.9699 79.01ZM66.3099 81.71C66.4299 80.69 67.9699 80.86 67.8299 81.79C67.7099 82.26 67.2099 82.31 66.8799 82.56C66.5599 82.34 66.3399 82.1 66.3099 81.71ZM67.3399 85.22C66.8599 85.1 66.8499 84.44 66.9899 84.09L67.5599 83.62L68.3799 84.34C68.2699 84.92 67.9999 85.21 67.3399 85.22ZM68.6199 87.36C67.7899 87.08 68.1599 86.5 68.3099 85.86C68.8099 85.53 69.5799 86.04 69.5399 86.66C69.3199 86.98 69.1399 87.41 68.6199 87.36ZM69.9799 76.08C69.6199 76.03 69.6599 75.7 69.5599 75.44C69.7999 74.21 71.4099 74.71 70.9399 75.59C70.8099 76.07 70.3399 76.23 69.9799 76.08ZM71.9699 88.7C71.6399 88.76 71.4899 89.02 71.0799 88.95C70.4999 88.84 70.4699 88.18 70.5499 87.77C71.1199 86.75 72.6699 87.77 71.9699 88.7ZM71.8399 74.9C71.5799 74.73 71.6699 74.33 71.5499 74.07C71.7299 73.09 73.8599 73.36 72.9899 74.55C72.8699 75.01 72.1399 75.01 71.8399 74.9ZM74.5799 88.64C74.3699 88.97 74.2499 89.44 73.7299 89.39C73.3399 89.12 73.0999 88.78 73.0499 88.3C73.3099 87.08 75.1099 87.69 74.5799 88.64ZM74.8799 72.63C75.4499 72.72 75.6999 73.06 75.7699 73.66C75.6099 74.2 75.0899 74.13 74.6899 74.34C73.8699 73.91 74.2099 72.94 74.8799 72.63ZM75.4099 88.07C75.7099 86.88 77.2799 87.44 76.9699 88.35C76.8399 88.71 76.5999 88.93 76.2199 88.96C75.8299 88.71 75.3499 88.59 75.4099 88.07Z" fill="#31287C"/>
<path d="M78.74 67.41C78.48 68.8 79.49 69.64 80.68 70.22C82.02 70.55 83.51 70.22 84.21 68.74C84.75 67.07 83.77 65.05 82 65.09C80.29 64.45 79.5 66.23 78.74 67.41Z" fill="#31287C"/>
<path d="M63.77 62.57C67.01 62.84 70.46 63.6 72.69 60.44C70.74 60.19 68.94 59.58 66.99 59.59L63.77 62.57Z" fill="#31287C"/>
<path d="M71.26 66.61L77.07 68.99C76.54 67.55 77.1 66.26 78.07 65.04L71.26 66.61Z" fill="#31287C"/>
<path d="M58.91 68.09L65.02 68.46C65.73 67.08 66.8 66.12 67.73 64.97C65.92 64.54 63.96 64.56 62.1 64.18C61.02 65.4 59.22 66.63 58.91 68.09Z" fill="#31287C"/>
<path d="M55 74.37L62.12 74.58C62.59 73.14 63.27 71.54 63.66 70.24L57.89 69.63C56.74 71 55.5 72.49 55 74.37Z" fill="#31287C"/>
<path d="M53.56 80.71C56.34 81.22 59.01 80.66 61.83 80.56L61.77 76.56C59.37 76.02 56.78 76.45 54.43 75.96C53.81 77.48 53.18 79.18 53.56 80.71Z" fill="#31287C"/>
<path d="M53.6201 87.39C56.2401 87.89 59.6801 87.26 62.4501 86.94L62.0401 82.91C59.2301 82.28 56.0901 82.72 53.3101 82.77L53.6201 87.39Z" fill="#31287C"/>
<path d="M56.3099 93.73L64.1299 93.28C63.5099 91.95 63.4299 89.97 62.3499 88.82C59.6399 89.18 56.4899 88.79 54.0699 89.7C54.9999 90.95 55.1499 92.97 56.3099 93.73Z" fill="#31287C"/>
<path d="M59.77 99.27C62.32 98.91 64.95 98.95 67.04 98.29L64.86 94.85L56.78 95.41C57.73 96.76 58.09 98.47 59.77 99.27Z" fill="#31287C"/>
<path d="M70.13 102.69C69.68 98.16 64.07 100.59 61.03 101.02C63.11 105.03 67.05 102.35 70.13 102.69Z" fill="#31287C"/>
<path d="M73.16 108.23C75.99 109.24 78.98 109.44 81.95 109.53C79.01 109.26 76.29 105.83 73.16 108.23Z" fill="#31287C"/>
<path d="M74.27 106.1C72.54 102.4 68.63 104.75 65.91 104.82L67.73 106C69.58 108.22 71.89 106.49 74.27 106.1Z" fill="#31287C"/>
<path d="M94.84 57.99C93.69 57.39 92.51 56.87 91.31 56.41C90.59 56.34 89.84 56.38 89.11 56.49C89.12 57.09 89.15 57.7 89.14 58.33C90.94 58.74 92.94 58.06 94.84 57.99Z" fill="#31287C"/>
<path d="M89.0201 60.34C88.9601 60.72 88.9001 61.1 88.8101 61.47C89.0001 61.98 89.0301 62.51 89.0101 63.06C91.8901 63.26 99.1301 62.63 101.3 62.45C100.11 61.36 98.8101 60.37 97.4401 59.49C95.5601 59.61 91.9101 60.01 89.0201 60.34Z" fill="#31287C"/>
<path d="M88.86 64.58C88.69 66 88.59 67.38 89.83 68.29L105.83 67.93C105 66.54 104.01 65.23 102.91 64.05C100.91 64.31 93.42 64.39 88.86 64.58Z" fill="#31287C"/>
<path d="M92.47 70.01C94.28 71.29 95.9 72.72 97.32 74.39L108.38 74.23C108 72.55 107.43 70.97 106.69 69.48L92.47 70.01Z" fill="#31287C"/>
<path d="M108.9 78.47C108.88 77.59 108.79 76.76 108.68 75.94C106.49 76.08 102.43 76.1 98.65 76.13C99.43 77.26 100.14 78.49 100.78 79.85C100.86 80.13 100.94 80.43 101 80.76C103.92 80.82 106.82 80.81 108.79 80.74L108.9 78.47Z" fill="#31287C"/>
<path d="M108.59 85.17L108.7 82.58C106.78 82.55 103.92 82.49 100.98 82.47C100.83 83.15 100.44 83.71 99.73 83.86C95.74 85.61 94.95 84.82 90.73 85.23C90.75 85.83 90.77 86.41 90.77 86.98C94.63 87.24 103.65 87.55 108.1 87.41C108.29 86.66 108.45 85.92 108.59 85.17Z" fill="#31287C"/>
<path d="M107.62 89.21C103.24 88.84 94.47 88.98 90.78 88.84C90.77 90.42 90.73 91.89 90.67 93.3L105.97 93.59C106.62 92.16 107.17 90.69 107.62 89.21Z" fill="#31287C"/>
<path d="M105.16 95.26L90.6001 94.9C90.5301 96.19 90.4701 97.44 90.4301 98.73C94.6601 98.88 100.08 98.94 102.8 99.08C103.68 97.87 104.46 96.59 105.16 95.26Z" fill="#31287C"/>
<path d="M101.48 100.78C98.33 100.45 92.29 99.98 90.62 100.74C90.53 100.78 90.44 100.83 90.36 100.89C90.34 101.61 90.33 102.35 90.34 103.12C92.67 103.19 96.29 103.73 99.13 103.24C99.97 102.47 100.74 101.64 101.48 100.78Z" fill="#31287C"/>
<path d="M90.38 105.41C90.4 105.84 90.42 106.29 90.44 106.74C91.32 106.93 92.17 107.17 93 107.24C94.54 106.57 95.97 105.73 97.3 104.74C95.01 104.49 92.15 103.51 90.38 105.41Z" fill="#31287C"/>
</svg>
